<svg version="1.1" id="Layer_1" xmlns="http://www.w3.org/2000/svg" xmlns:xlink="http://www.w3.org/1999/xlink" x="0px" y="0px"
	 viewBox="0 0 32 32" fill="currentColor" style="enable-background:new 0 0 32 32;" xml:space="preserve">
<g>
	<path d="M16,15.5c1.3-1.4,2-3.3,1.9-5.2V8.4c0-1.2-1-2.3-2.2-2.3c-0.6,0-1.1,0.2-1.6,0.6c-0.4,0.4-0.7,1-0.7,1.6v1.9
		c0,0.8-0.3,1.7-0.9,2.2c-0.6,0.6-1.4,1-2.3,1H9.8V8.4c0-0.6-0.2-1.2-0.7-1.6c-0.4-0.4-1-0.6-1.6-0.6c-1.3,0-2.3,1-2.3,2.3
		c0,0,0,0,0,0v15.9c0,1.2,1,2.2,2.3,2.2c1.2,0,2.2-1,2.3-2.3V18h0.9c1.7-0.1,3.2,1.3,3.3,3c0,0,0,0.1,0,0.1v3.1c0,1.2,1,2.2,2.2,2.3
		c1.3,0,2.3-1,2.3-2.3v-3.1c0-1.4-0.3-2.7-1-3.9C17.1,16.6,16.6,16,16,15.5z"/>
	<path d="M25.9,11.1h-0.7c-1.6,0-3.1,0.7-4.2,1.9c-1.2,1.1-1.8,2.7-1.9,4.3v7.1c0.1,1.2,1.1,2.1,2.3,2.1c1.2,0,2.2-1,2.3-2.3v-7.1
		c0-0.4,0.1-0.8,0.4-1.1c0.3-0.3,0.7-0.4,1.1-0.4h0.7c1.2,0,2.2-1,2.3-2.3C28.1,12.1,27.1,11.1,25.9,11.1z"/>
</g>
</svg>